<?xml version="1.0" standalone="no"?>
<!DOCTYPE svg PUBLIC "-//W3C//DTD SVG 20010904//EN"
 "http://www.w3.org/TR/2001/REC-SVG-20010904/DTD/svg10.dtd">
<svg version="1.0" xmlns="http://www.w3.org/2000/svg"
 width="1960.000000pt" height="800.000000pt" viewBox="0 0 1960.000000 800.000000"
 preserveAspectRatio="xMidYMid meet">
<metadata>
Created by potrace 1.16, written by Peter Selinger 2001-2019
</metadata>
<g transform="translate(0.000000,800.000000) scale(0.100000,-0.100000)"
fill="#000000" stroke="none">
<path d="M0 4000 l0 -4000 9800 0 9800 0 0 4000 0 4000 -9800 0 -9800 0 0
-4000z m2650 2560 c286 -19 548 -58 830 -126 624 -151 1435 -460 1759 -671
135 -88 271 -230 271 -284 0 -28 -39 -69 -67 -69 -14 0 -105 43 -202 97 -159
87 -762 393 -775 393 -3 0 -29 11 -58 24 -283 128 -677 272 -938 343 -159 43
-279 72 -375 92 -22 5 -65 14 -95 21 -442 94 -962 107 -1323 31 -408 -85 -704
-287 -839 -571 -106 -224 -115 -545 -24 -846 31 -102 80 -234 113 -304 147
-313 163 -366 163 -550 0 -142 -8 -177 -33 -150 -8 8 -30 44 -50 80 -19 36
-54 98 -76 139 -42 76 -104 202 -148 300 -13 31 -28 65 -33 76 -5 11 -27 74
-49 140 -72 221 -104 393 -104 575 0 549 321 945 930 1146 319 105 678 142
1123 114z m4297 -530 c95 -13 117 -33 128 -111 11 -81 38 -134 83 -164 47 -31
221 -94 240 -88 8 3 70 52 139 109 69 57 129 104 134 104 15 0 158 -59 229
-95 73 -37 140 -89 140 -109 0 -7 -26 -55 -57 -107 -52 -85 -57 -100 -58 -151
0 -67 20 -101 81 -132 43 -23 122 -26 324 -11 105 7 106 7 137 -19 38 -32 92
-137 100 -194 5 -36 2 -43 -33 -78 -25 -25 -70 -52 -122 -74 -159 -67 -220
-137 -189 -213 19 -43 65 -76 175 -121 44 -19 94 -43 111 -55 60 -43 64 -128
12 -244 -34 -75 -51 -91 -88 -83 -77 16 -294 26 -340 16 -63 -15 -139 -64
-170 -112 -23 -35 -25 -42 -15 -76 6 -21 30 -62 53 -92 81 -107 81 -143 1
-197 -48 -33 -245 -133 -260 -133 -5 0 -55 32 -111 71 -173 119 -223 135 -332
103 -116 -35 -171 -99 -185 -217 -5 -46 -12 -62 -35 -82 -39 -32 -81 -40 -224
-40 -197 0 -239 28 -251 166 -9 102 -28 124 -140 158 -153 46 -233 28 -350
-81 -80 -76 -103 -80 -207 -39 -111 44 -152 67 -197 108 -35 31 -40 41 -40 78
0 36 7 52 46 99 61 74 70 127 29 186 -15 22 -50 54 -78 72 -47 30 -59 33 -127
33 -41 0 -124 -4 -183 -9 l-108 -8 -37 39 c-45 47 -102 161 -102 204 0 44 45
83 128 110 142 46 213 97 227 160 19 88 -58 161 -223 213 -106 33 -120 41
-128 70 -7 31 23 141 52 186 38 60 88 101 130 107 22 2 70 -2 107 -11 85 -20
194 -21 240 -1 77 32 127 95 127 160 0 43 -11 65 -62 126 -31 37 -38 53 -38
88 0 37 5 49 36 77 36 35 157 97 251 130 63 22 68 20 184 -78 123 -104 140
-110 251 -84 135 33 200 96 214 211 5 47 13 65 35 86 48 45 184 60 346 39z
m-2045 -865 c-1 -11 -13 -46 -25 -79 -15 -41 -29 -61 -47 -69 -30 -12 -196
-15 -1740 -27 -946 -7 -1164 -11 -1205 -23 -60 -17 -146 -59 -164 -81 -10 -12
-12 -204 -8 -978 7 -1214 1 -1168 138 -1190 43 -8 845 -12 2465 -15 l2402 -4
44 49 c60 67 71 116 77 347 l6 190 48 8 c27 4 88 6 135 5 l86 -3 9 -40 c13
-62 2 -431 -15 -490 -32 -108 -82 -162 -203 -220 -97 -45 -148 -54 -400 -65
-296 -13 -4051 -13 -4395 0 -412 16 -496 36 -601 140 -50 49 -58 62 -70 120
-10 52 -14 261 -16 1015 -3 820 -2 967 12 1072 18 138 31 178 74 220 34 34
135 85 216 108 96 28 307 32 1765 31 1409 -1 1415 -1 1412 -21z m4415 -103
c26 -22 93 -93 148 -160 55 -66 107 -121 116 -121 10 -1 45 41 88 103 91 132
177 216 220 216 34 0 38 -12 16 -50 -19 -34 -19 -38 7 -42 12 -2 23 -8 25 -14
4 -12 -72 -131 -143 -224 -23 -31 -58 -88 -79 -128 -33 -65 -38 -85 -46 -185
-11 -135 -12 -137 -42 -137 -49 0 -103 85 -112 177 -14 138 -43 209 -133 328
-101 133 -172 239 -172 256 0 33 52 24 107 -19z m954 -2 c44 -46 58 -87 66
-187 5 -62 8 -72 27 -77 38 -10 406 -7 427 4 17 10 19 22 19 128 0 133 10 165
54 170 29 4 66 -21 66 -44 0 -7 11 -21 25 -31 39 -28 47 -112 43 -401 -5 -280
-9 -302 -60 -302 -76 1 -127 89 -128 220 0 47 -4 91 -8 98 -7 9 -60 12 -233
10 l-224 -3 -6 -120 c-7 -145 -22 -205 -49 -205 -11 0 -24 8 -29 19 -6 10 -26
22 -46 25 -68 13 -70 22 -70 361 0 261 2 305 17 338 24 52 58 51 109 -3z
m1416 -4 c54 -61 154 -247 290 -536 59 -125 77 -180 65 -192 -17 -17 -89 29
-156 98 -76 78 -92 83 -261 84 -152 0 -181 -12 -208 -85 -34 -93 -69 -115
-133 -84 -48 23 -66 51 -58 90 10 45 68 175 166 369 113 226 168 300 223 300
27 0 41 -9 72 -44z m732 17 c46 -30 119 -133 228 -323 112 -195 128 -220 140
-220 11 0 93 110 93 124 0 19 219 369 253 404 51 52 91 56 137 15 26 -25 31
-38 40 -113 11 -95 13 -533 2 -595 -6 -31 -12 -41 -30 -43 -53 -8 -98 68 -112
187 -12 108 -23 141 -48 141 -27 0 -63 -43 -132 -157 -92 -154 -136 -190 -201
-163 -45 19 -102 90 -191 240 -97 162 -116 188 -122 169 -2 -8 -7 -75 -10
-149 -9 -257 -44 -317 -137 -240 -52 43 -60 82 -66 345 -5 231 4 362 27 391
20 23 81 17 129 -13z m1464 16 c25 -11 47 -47 47 -76 0 -9 -10 -32 -22 -52
-22 -35 -23 -44 -21 -246 1 -180 4 -221 22 -285 31 -108 32 -103 -19 -112 -98
-18 -252 25 -280 77 -12 23 -11 28 13 53 41 43 47 80 47 293 0 208 -6 247 -47
288 -28 28 -29 39 -5 57 22 17 230 19 265 3z m444 -4 c36 -25 45 -78 52 -320
10 -324 14 -330 213 -340 130 -7 199 -22 234 -50 46 -37 28 -52 -70 -60 -104
-9 -387 8 -441 27 -34 11 -42 20 -57 62 -29 76 -44 333 -30 501 15 181 38 223
99 180z m-11481 -451 c18 -9 36 -25 39 -35 11 -34 57 -50 124 -43 75 8 86 0
94 -67 7 -59 26 -85 68 -94 54 -12 59 -55 10 -99 -23 -21 -28 -76 -11 -122 13
-33 0 -50 -41 -58 -16 -3 -42 -8 -58 -12 -23 -4 -32 -14 -46 -50 -27 -71 -86
-91 -173 -58 -43 17 -43 17 -104 -15 -33 -17 -68 -31 -78 -31 -9 0 -37 15 -61
34 -48 37 -97 56 -140 56 -43 0 -79 21 -86 49 -11 46 -35 85 -70 114 l-34 29
26 45 c20 37 25 59 25 119 0 72 1 74 28 79 88 18 104 26 117 60 26 60 36 65
145 65 91 0 101 2 127 25 33 29 53 31 99 9z m1483 -505 c17 -6 31 -17 31 -24
0 -25 52 -75 90 -86 34 -10 44 -9 91 15 68 33 107 40 141 27 49 -19 62 -53 67
-177 1 -25 48 -47 123 -58 60 -9 108 -47 108 -86 0 -32 -13 -46 -55 -56 -39
-9 -65 -32 -65 -57 0 -11 21 -40 46 -66 59 -59 74 -80 74 -107 0 -35 -33 -54
-118 -68 -112 -17 -126 -31 -119 -114 5 -53 3 -66 -13 -82 -32 -32 -85 -36
-149 -9 -96 40 -150 29 -202 -44 -49 -67 -114 -92 -172 -66 -25 11 -47 47 -47
75 0 23 -61 54 -106 54 -22 0 -67 -9 -99 -20 -66 -23 -94 -25 -128 -9 -34 15
-45 46 -40 106 5 46 2 55 -20 77 -23 23 -34 26 -97 26 -57 0 -74 4 -90 20 -39
39 -29 83 31 147 70 74 68 121 -7 137 -18 4 -40 16 -49 26 -15 17 -16 24 -5
50 16 37 47 55 124 69 90 17 106 31 106 95 0 93 37 146 101 146 11 0 52 -14
90 -31 100 -43 112 -39 208 69 25 27 36 32 74 32 24 0 58 -5 76 -11z m11421
-531 c188 -57 314 -177 351 -331 18 -75 6 -197 -26 -262 -82 -169 -349 -259
-546 -185 -127 47 -265 163 -315 266 -24 50 -29 71 -29 134 1 62 6 86 32 140
63 134 128 194 256 235 118 38 162 39 277 3z m-4052 7 c45 -8 110 -26 143 -41
91 -41 160 -133 114 -151 -9 -3 -62 9 -118 28 -85 27 -118 33 -197 33 -111 1
-162 -17 -178 -64 -23 -63 21 -96 189 -139 64 -16 138 -41 165 -54 144 -74
223 -209 169 -291 -38 -58 -175 -121 -289 -132 -116 -11 -283 45 -401 134 -65
50 -74 66 -51 91 28 31 59 26 160 -26 111 -56 195 -76 266 -63 127 24 187 93
128 147 -33 29 -48 36 -188 82 -145 49 -245 104 -291 162 -27 35 -32 49 -33
98 -1 44 4 64 22 89 31 43 97 80 174 97 83 18 117 18 216 0z m6853 -6 c114
-29 188 -70 257 -143 83 -90 132 -197 132 -290 0 -115 -53 -209 -152 -274
-172 -112 -322 -129 -473 -54 -132 65 -234 163 -281 270 -32 70 -34 198 -5
265 49 113 163 195 321 232 79 18 106 18 201 -6z m-8816 -14 c128 -31 263
-118 329 -214 35 -50 76 -161 76 -205 0 -45 -28 -124 -58 -164 -90 -119 -314
-199 -537 -190 -172 6 -204 35 -224 198 -12 92 -15 573 -4 583 13 14 356 7
418 -8z m1189 5 c14 -5 33 -21 42 -36 18 -26 17 -27 -5 -45 -21 -17 -42 -19
-195 -19 -120 0 -176 -4 -184 -12 -18 -18 -10 -153 10 -174 2 -2 54 -8 116
-13 127 -11 160 -25 187 -74 31 -58 17 -65 -145 -69 -169 -4 -175 -7 -173 -99
2 -101 34 -118 248 -128 l130 -6 20 -37 c32 -60 23 -63 -200 -66 -217 -4 -289
6 -335 44 -53 45 -61 96 -67 410 -3 155 -3 293 1 308 l6 26 260 0 c142 0 270
-4 284 -10z m1684 -7 c39 -25 55 -42 89 -93 59 -88 267 -492 313 -611 18 -44
18 -50 4 -56 -19 -7 -101 49 -176 122 l-57 55 -138 0 c-199 0 -234 -13 -274
-99 -25 -53 -57 -91 -76 -91 -21 0 -93 76 -93 97 0 64 150 397 261 580 71 117
92 131 147 96z m1144 -16 c124 -61 205 -166 195 -253 -6 -56 -32 -85 -100
-114 -58 -25 -87 -47 -87 -66 0 -7 34 -58 76 -114 87 -117 119 -174 110 -196
-14 -38 -98 20 -227 155 -126 132 -209 171 -255 120 -15 -16 -20 -42 -24 -127
-8 -145 -27 -176 -93 -148 -48 20 -79 60 -89 113 -10 58 -23 625 -14 648 5 14
31 16 228 13 221 -3 224 -3 280 -31z m983 3 c70 -35 178 -144 194 -197 8 -22
11 -53 7 -67 -10 -41 -62 -92 -113 -111 -27 -10 -56 -24 -65 -33 -21 -18 -19
-24 72 -152 92 -131 117 -177 102 -192 -8 -8 -19 -7 -43 3 -45 18 -86 55 -179
164 -86 100 -139 135 -202 135 -68 0 -79 -20 -88 -155 -8 -106 -11 -122 -31
-138 -35 -28 -97 1 -134 64 -19 32 -20 55 -23 357 -2 177 -1 330 2 338 5 13
36 15 228 12 215 -3 225 -4 273 -28z m1746 17 c47 -37 51 -56 60 -305 8 -243
16 -297 47 -325 25 -23 107 -37 208 -37 95 0 187 -28 205 -62 21 -39 1 -43
-219 -42 -218 0 -315 12 -343 42 -34 36 -50 158 -50 389 0 305 24 393 92 340z
m832 -7 c39 -31 46 -74 53 -305 4 -131 11 -229 20 -261 19 -72 50 -85 214 -93
105 -5 133 -10 175 -31 65 -33 74 -66 20 -76 -54 -10 -401 2 -462 15 -64 15
-80 33 -101 113 -21 84 -24 519 -3 588 22 75 39 85 84 50z m-9543 -146 c47 -8
92 -21 101 -27 57 -42 241 -499 268 -667 57 -348 31 -668 -72 -875 -152 -307
-430 -519 -880 -671 -201 -68 -216 -69 -782 -69 -623 0 -698 8 -1125 111 -193
47 -243 61 -450 126 -189 60 -224 72 -505 179 -320 121 -335 127 -335 139 0 6
1 10 3 10 63 13 195 29 232 29 48 1 177 -19 260 -39 22 -5 53 -12 70 -16 16
-4 167 -54 335 -111 304 -104 352 -118 570 -174 185 -47 387 -85 570 -108 218
-27 281 -31 486 -31 286 0 480 24 689 85 385 111 670 360 741 645 15 62 18
115 18 315 0 236 -1 242 -31 361 -32 123 -39 142 -103 309 -16 42 -173 359
-201 406 -42 72 -39 89 14 89 23 0 80 -7 127 -16z m-664 -1263 c227 -9 274
-16 274 -45 0 -15 -102 -117 -169 -169 l-44 -35 -256 -6 c-141 -3 -619 -9
-1063 -12 l-806 -7 -46 64 c-25 35 -52 72 -60 82 -15 16 -60 17 -671 17 l-656
0 -22 -23 c-12 -13 -39 -49 -60 -80 l-38 -57 -742 0 c-967 0 -1271 14 -1415
63 -49 17 -131 78 -163 120 l-22 30 21 17 c27 23 96 31 312 40 254 10 5352 11
5626 1z"/>
<path d="M6645 5409 c-114 -11 -178 -27 -277 -69 -112 -48 -237 -132 -317
-213 -124 -126 -156 -205 -156 -382 0 -129 11 -177 65 -285 162 -323 799 -498
1254 -346 311 105 534 350 554 607 10 136 -42 260 -162 386 -181 192 -376 279
-679 303 -141 11 -165 11 -282 -1z m348 -259 c240 -53 410 -197 432 -366 8
-61 -14 -156 -48 -211 -55 -87 -183 -185 -280 -214 -118 -37 -148 -41 -279
-41 -235 0 -363 45 -479 169 -54 57 -76 96 -101 173 -22 69 -23 113 -1 181 49
156 209 276 424 318 81 16 239 12 332 -9z"/>
<path d="M11607 4822 c-24 -26 -70 -131 -64 -146 12 -30 182 -30 193 -1 12 31
-66 165 -96 165 -9 0 -24 -8 -33 -18z"/>
<path d="M2640 4471 c-94 -30 -140 -81 -140 -152 0 -62 17 -97 70 -142 77 -65
195 -79 294 -34 110 50 166 114 152 171 -9 35 -93 116 -146 139 -49 22 -185
33 -230 18z"/>
<path d="M4108 3866 c-103 -30 -176 -91 -202 -169 -22 -66 -20 -123 8 -182 61
-132 228 -207 402 -180 223 34 314 116 314 282 0 128 -34 174 -172 231 -54 22
-81 26 -183 28 -79 2 -136 -1 -167 -10z"/>
<path d="M15585 3478 c-51 -14 -154 -115 -186 -183 -19 -40 -24 -67 -24 -136
0 -77 3 -90 27 -127 15 -22 49 -54 75 -69 43 -25 57 -28 138 -28 75 0 98 4
140 25 184 90 244 327 113 445 -76 70 -190 99 -283 73z"/>
<path d="M18439 3477 c-143 -40 -249 -167 -249 -298 0 -205 206 -317 401 -218
50 25 114 101 133 156 21 60 21 182 0 231 -44 106 -168 162 -285 129z"/>
<path d="M9516 3444 c-3 -9 -6 -118 -6 -244 0 -192 2 -230 15 -240 12 -10 40
-11 108 -6 140 10 208 40 258 115 40 61 52 113 46 194 -13 148 -91 197 -316
197 -81 0 -100 -3 -105 -16z"/>
<path d="M12576 3338 c-8 -13 -27 -54 -42 -92 -26 -66 -27 -69 -9 -82 12 -9
46 -14 91 -14 83 0 104 6 104 29 0 25 -94 176 -112 179 -9 2 -23 -7 -32 -20z"/>
<path d="M13466 3469 c-24 -18 -26 -27 -26 -89 0 -50 5 -74 18 -90 39 -48 201
-33 260 26 41 40 44 93 9 128 -47 46 -213 62 -261 25z"/>
<path d="M14450 3472 c-23 -18 -25 -27 -25 -96 0 -101 10 -111 108 -110 117 2
237 56 237 108 0 51 -104 104 -225 113 -60 5 -73 3 -95 -15z"/>
</g>
</svg>
